<svg width="335" height="74" viewBox="0 0 335 74" fill="none" xmlns="http://www.w3.org/2000/svg">
<path d="M19.0638 71.52C24.6638 71.52 29.0104 70.3733 32.1038 68.08C35.2504 65.7867 36.8238 62.7467 36.8238 58.96C36.8238 56.24 36.1304 53.84 34.7437 51.76C33.4104 49.68 31.7304 47.9733 29.7038 46.64C27.6771 45.2533 25.5971 43.8933 23.4638 42.56C21.3838 41.2267 19.4371 39.5467 17.6238 37.52C15.8104 35.4933 14.6104 33.2 14.0238 30.64C9.17042 29.2 5.97042 26.1867 4.42375 21.6C3.83708 19.84 3.54375 18 3.54375 16.08C3.54375 14.16 3.83708 12.16 4.42375 10.08C5.65042 5.97333 7.65042 2.88 10.4238 0.799995L11.3038 2.08C8.79708 3.89333 6.98375 6.72 5.86375 10.56C5.33042 12.48 5.06375 14.32 5.06375 16.08C5.06375 17.84 5.33042 19.52 5.86375 21.12C7.14375 25.0133 9.78375 27.6267 13.7838 28.96C13.6771 28.3733 13.6238 27.4667 13.6238 26.24C13.6238 19.2533 16.1571 13.6 21.2238 9.28C26.2904 4.96 32.4771 2.8 39.7838 2.8C44.5838 2.8 48.4238 4.10666 51.3038 6.72C53.7571 9.01333 54.9838 11.84 54.9838 15.2C54.9838 18.5067 53.8638 21.3867 51.6238 23.84C49.3838 26.24 46.3704 27.44 42.5838 27.44C40.5038 27.44 38.7971 27.04 37.4638 26.24C34.7438 28.32 31.5171 29.8133 27.7838 30.72C28.8504 31.7333 31.3304 33.6 35.2238 36.32C39.1704 39.04 42.1038 41.6533 44.0238 44.16C45.9971 46.6133 46.9838 49.4933 46.9838 52.8C46.9838 58.88 44.6104 63.8133 39.8638 67.6C35.1704 71.3867 29.1971 73.28 21.9438 73.28C14.7438 73.28 9.30375 71.68 5.62375 68.48C2.42375 65.76 0.82375 62.4267 0.82375 58.48C0.82375 54.5867 2.07708 51.2533 4.58375 48.48C7.14375 45.6533 10.3171 44.24 14.1038 44.24C17.8904 44.24 20.6904 45.0933 22.5038 46.8C24.3171 48.4533 25.2238 50.48 25.2238 52.88C25.2238 55.28 24.4771 57.4133 22.9838 59.28C21.5438 61.1467 19.6504 62.08 17.3038 62.08C14.9571 62.08 13.0904 61.3333 11.7038 59.84C10.4238 58.56 9.70375 56.96 9.54375 55.04C9.49042 54.5067 9.49042 54.1867 9.54375 54.08L11.0638 54.16C11.0104 56.0267 11.5971 57.5733 12.8238 58.8C13.8371 59.92 15.3038 60.48 17.2238 60.48C19.1971 60.48 20.7704 59.7067 21.9438 58.16C23.1171 56.6667 23.7038 54.9333 23.7038 52.96C23.7038 50.9333 23.0104 49.3067 21.6238 48.08C20.0771 46.5333 17.5971 45.76 14.1838 45.76C10.7704 45.76 7.94375 47.0133 5.70375 49.52C3.46375 51.9733 2.34375 54.9333 2.34375 58.4C2.34375 61.92 3.78375 64.9067 6.66375 67.36C8.37042 68.8533 10.1038 69.92 11.8638 70.56C13.6771 71.2 16.0771 71.52 19.0638 71.52ZM32.6638 16.48C32.6638 14.1333 33.2504 12.1867 34.4238 10.64C35.6504 9.09333 37.3038 8.32 39.3838 8.32C42.9571 8.32 44.7438 10.2933 44.7438 14.24C44.7438 18.1333 42.7971 21.8133 38.9038 25.28C40.0771 25.8133 41.3038 26.08 42.5838 26.08C45.8904 26.08 48.5304 25.0133 50.5038 22.88C52.4771 20.6933 53.4638 18.16 53.4638 15.28C53.4638 12.3467 52.3971 9.86666 50.2638 7.84C47.6504 5.49333 44.2104 4.32 39.9438 4.32C35.6771 4.32 32.0504 5.36 29.0638 7.44C24.4238 10.7467 22.1038 15.0133 22.1038 20.24C22.1038 24.56 23.5438 27.7067 26.4238 29.68C29.9971 28.88 33.3038 27.44 36.3438 25.36C33.8904 23.1733 32.6638 20.2133 32.6638 16.48ZM39.3038 9.76C37.7038 9.76 36.4504 10.3733 35.5438 11.6C34.6904 12.8267 34.2638 14.4533 34.2638 16.48C34.2638 19.9467 35.3571 22.5867 37.5438 24.4C39.1438 23.28 40.4771 21.76 41.5438 19.84C42.6104 17.92 43.1438 16.0267 43.1438 14.16C43.1438 11.2267 41.8638 9.76 39.3038 9.76ZM71.8606 56.64C69.4073 56.64 67.4606 56.08 66.0206 54.96L63.6206 67.84H54.1006L61.6206 25.92C60.0206 26.08 58.6873 26.8267 57.6206 28.16L56.4206 27.2C58.0206 25.28 59.994 24.32 62.3406 24.32C64.7406 24.32 66.6073 24.9067 67.9406 26.08C69.274 27.2 69.994 28.8 70.1006 30.88C72.4473 26.88 75.434 24.88 79.0606 24.88C82.6873 24.88 85.4606 25.92 87.3806 28C89.3006 30.0267 90.2606 32.8267 90.2606 36.4C90.2606 42.6933 88.554 47.6533 85.1406 51.28C81.7273 54.8533 77.3006 56.64 71.8606 56.64ZM66.5806 51.76C67.4873 53.7867 69.194 54.8 71.7006 54.8C74.2606 54.8 76.474 52.6667 78.3406 48.4C80.2606 44.1333 81.2206 39.04 81.2206 33.12C81.2206 30.6667 80.954 28.9867 80.4206 28.08C79.9406 27.1733 79.034 26.72 77.7006 26.72C76.3673 26.72 74.9806 27.52 73.5406 29.12C72.154 30.72 71.1406 32.24 70.5006 33.68C69.8606 35.0667 69.5406 35.8667 69.5406 36.08H69.4606L66.5806 51.76ZM108.942 53.84C107.342 55.76 105.342 56.72 102.942 56.72C100.542 56.72 98.6485 56.1067 97.2619 54.88C95.9285 53.6533 95.2619 52.0533 95.2619 50.08C95.2619 49.3867 95.6885 46.48 96.5419 41.36L99.1819 27.04H95.8219L95.9819 25.6H99.4219C103.369 25.6 106.275 25.44 108.142 25.12L109.262 24.88L103.742 55.12C105.342 54.96 106.675 54.2133 107.742 52.88L108.942 53.84ZM101.902 17.2C100.782 16.08 100.222 14.72 100.222 13.12C100.222 11.52 100.782 10.16 101.902 9.04C103.022 7.86666 104.382 7.28 105.982 7.28C107.582 7.28 108.942 7.86666 110.062 9.04C111.235 10.16 111.822 11.52 111.822 13.12C111.822 14.72 111.235 16.08 110.062 17.2C108.942 18.32 107.582 18.88 105.982 18.88C104.382 18.88 103.022 18.32 101.902 17.2ZM132.797 39.28C131.677 38.16 131.117 36.8 131.117 35.2C131.117 33.6 131.677 32.24 132.797 31.12C133.917 29.9467 135.277 29.36 136.877 29.36C137.357 29.36 137.97 29.4667 138.717 29.68C137.704 27.8133 135.81 26.88 133.037 26.88C130.264 26.88 127.81 28.64 125.677 32.16C123.544 35.68 122.477 40.9067 122.477 47.84C122.477 50.24 123.01 52.0267 124.077 53.2C125.197 54.32 126.584 54.88 128.237 54.88C129.89 54.88 131.384 54.56 132.717 53.92C134.104 53.28 135.197 52.5333 135.997 51.68C136.797 50.7733 137.49 49.84 138.077 48.88C139.144 47.12 139.677 46 139.677 45.52L141.117 46.16C140.957 47.0133 140.477 48.16 139.677 49.6C138.877 50.9867 137.997 52.1333 137.037 53.04C136.077 53.9467 134.664 54.8 132.797 55.6C130.93 56.3467 128.85 56.72 126.557 56.72C122.237 56.72 118.957 55.7067 116.717 53.68C114.53 51.6 113.437 48.7733 113.437 45.2C113.437 38.8533 115.01 33.8933 118.157 30.32C121.357 26.6933 125.677 24.88 131.117 24.88C134.797 24.88 137.624 25.8133 139.597 27.68C141.57 29.5467 142.557 32 142.557 35.04C142.557 36.96 141.97 38.4267 140.797 39.44C139.677 40.4533 138.344 40.96 136.797 40.96C135.25 40.96 133.917 40.4 132.797 39.28ZM150.899 26.48C149.619 26.48 148.285 27.2267 146.899 28.72L145.699 27.76C146.072 27.0133 146.899 26.3467 148.179 25.76C149.459 25.1733 150.872 24.88 152.419 24.88C157.272 24.88 159.699 27.0667 159.699 31.44C159.699 33.3067 159.192 36.3733 158.179 40.64C157.165 44.8533 156.659 47.7067 156.659 49.2C156.659 51.76 157.725 53.04 159.859 53.04C161.619 53.04 163.325 51.84 164.979 49.44C166.685 47.04 168.072 43.8133 169.139 39.76L171.779 25.6C175.725 25.6 178.605 25.44 180.419 25.12L181.459 24.88L176.419 53.2C175.459 58.6933 173.219 62.9867 169.699 66.08C166.232 69.1733 161.725 70.72 156.179 70.72C152.819 70.72 150.205 70.1333 148.339 68.96C146.525 67.84 145.619 66.3467 145.619 64.48C145.619 62.6667 146.179 61.2 147.299 60.08C148.419 59.0133 149.992 58.48 152.019 58.48C154.099 58.48 156.019 58.8 157.779 59.44C159.539 60.1333 160.819 60.5333 161.619 60.64L161.459 62.08C160.552 61.9733 159.245 61.6 157.539 60.96C155.832 60.32 154.125 60 152.419 60C150.765 60 149.485 60.3733 148.579 61.12C147.725 61.8667 147.299 62.9333 147.299 64.32C147.299 65.76 148.072 66.9067 149.619 67.76C151.165 68.6667 153.085 69.12 155.379 69.12C160.925 69.12 164.339 65.7867 165.619 59.12L167.619 48.08C165.379 52.9867 161.992 55.44 157.459 55.44C154.365 55.44 151.965 54.56 150.259 52.8C148.605 51.04 147.779 48.56 147.779 45.36C147.779 43.7067 148.259 40.7467 149.219 36.48C150.232 32.16 150.792 28.8267 150.899 26.48Z" fill="#59CD90"/>
<path d="M196.691 45.12C196.691 53.12 199.277 58.4 204.451 60.96C205.731 61.12 207.411 61.2 209.491 61.2C211.571 61.2 213.757 60.88 216.051 60.24C218.397 59.6533 220.291 58.88 221.731 57.92C223.757 56.64 225.277 55.4133 226.291 54.24C226.611 53.0667 227.037 51.2 227.571 48.64C228.157 46.0267 228.611 44.0533 228.931 42.72L230.611 43.12C230.184 44.7733 229.651 46.9867 229.011 49.76C228.424 52.5333 227.971 54.5333 227.651 55.76C227.384 56.9333 226.957 58.4533 226.371 60.32C225.837 62.24 225.304 63.6267 224.771 64.48C224.237 65.3867 223.517 66.3733 222.611 67.44C221.171 69.2 218.877 70.5333 215.731 71.44L215.411 69.76C218.131 69.1733 220.237 67.84 221.731 65.76C223.224 63.7333 224.504 60.8533 225.571 57.12C221.251 61.0133 215.624 62.96 208.691 62.96C201.811 62.96 196.504 60.9867 192.771 57.04C189.091 53.1467 187.251 47.6267 187.251 40.48C187.251 30.8267 190.371 22.88 196.611 16.64C202.851 10.4 211.037 7.28 221.171 7.28C225.864 7.28 229.251 8.13333 231.331 9.84C233.411 11.4933 234.451 14.1067 234.451 17.68C234.451 20.08 233.277 23.04 230.931 26.56C228.797 29.9733 227.731 32.64 227.731 34.56H225.971C225.971 33.4933 226.184 32.3467 226.611 31.12C227.037 29.8933 227.411 29.0133 227.731 28.48C228.051 27.9467 228.637 26.9867 229.491 25.6C231.571 22.4533 232.611 19.8667 232.611 17.84C232.611 13.5733 230.851 10.88 227.331 9.76C225.677 9.22667 223.944 8.96 222.131 8.96C220.317 8.96 218.397 9.06667 216.371 9.28C214.504 9.86666 212.717 10.64 211.011 11.6C209.357 12.5067 207.624 13.92 205.811 15.84C203.997 17.7067 202.451 19.8933 201.171 22.4C199.891 24.9067 198.824 28.1333 197.971 32.08C197.117 35.9733 196.691 40.32 196.691 45.12ZM251.754 53.84C250.154 55.76 248.154 56.72 245.754 56.72C243.354 56.72 241.461 56.1067 240.074 54.88C238.741 53.6533 238.074 52.0533 238.074 50.08C238.074 49.3867 238.501 46.48 239.354 41.36L241.994 27.04H238.634L238.794 25.6H242.234C246.181 25.6 249.088 25.44 250.954 25.12L252.074 24.88L246.554 55.12C248.154 54.96 249.488 54.2133 250.554 52.88L251.754 53.84ZM244.714 17.2C243.594 16.08 243.034 14.72 243.034 13.12C243.034 11.52 243.594 10.16 244.714 9.04C245.834 7.86666 247.194 7.28 248.794 7.28C250.394 7.28 251.754 7.86666 252.874 9.04C254.048 10.16 254.634 11.52 254.634 13.12C254.634 14.72 254.048 16.08 252.874 17.2C251.754 18.32 250.394 18.88 248.794 18.88C247.194 18.88 245.834 18.32 244.714 17.2ZM256.809 27.76C258.409 25.84 260.409 24.88 262.809 24.88C265.263 24.88 267.156 25.4933 268.489 26.72C269.823 27.9467 270.489 29.68 270.489 31.92V32.4C272.889 27.3867 276.009 24.88 279.849 24.88C283.956 24.88 286.009 27.0133 286.009 31.28C286.009 33.04 285.423 34.9067 284.249 36.88C283.076 38.8533 281.903 40.7467 280.729 42.56C279.556 44.32 278.969 45.8933 278.969 47.28H277.049C277.049 45.3067 278.196 42.64 280.489 39.28C282.783 35.92 283.929 33.3333 283.929 31.52C283.929 29.6533 283.556 28.4 282.809 27.76C282.116 27.0667 281.049 26.72 279.609 26.72C278.223 26.72 276.836 27.3333 275.449 28.56C274.116 29.7867 272.996 31.3333 272.089 33.2C270.649 35.9733 269.689 38.24 269.209 40V40.08L266.329 56H256.729L262.009 26.48C260.409 26.64 259.076 27.3867 258.009 28.72L256.809 27.76ZM302.298 53.12C301.604 54.0267 300.644 54.8533 299.418 55.6C298.244 56.3467 296.698 56.72 294.778 56.72C292.858 56.72 291.231 56.1067 289.898 54.88C288.564 53.6533 287.898 51.92 287.898 49.68C287.898 49.2533 287.951 48.56 288.058 47.6L293.258 18.8C294.218 13.52 295.524 9.76 297.178 7.52C298.884 5.28 301.124 4.16 303.898 4.16C305.818 4.16 307.391 4.88 308.618 6.32C309.898 7.76 310.538 9.94666 310.538 12.88C310.538 15.8133 309.391 20 307.098 25.44C304.858 30.88 303.738 34.8533 303.738 37.36H302.298C302.298 34.5333 303.418 30.5067 305.658 25.28C307.898 20 309.018 15.7867 309.018 12.64C309.018 10.72 308.564 9.06667 307.658 7.68C306.804 6.29333 305.738 5.6 304.458 5.6C304.404 6.98666 303.471 13.2267 301.658 24.32C299.898 35.36 298.138 45.6267 296.378 55.12C297.871 55.12 299.258 54.3467 300.538 52.8C301.818 51.2533 302.724 49.7067 303.258 48.16L304.138 45.76L305.578 46.4C305.418 47.1467 304.991 48.24 304.298 49.68C303.658 51.0667 302.991 52.2133 302.298 53.12ZM317.443 54.64C322.723 54.64 325.363 50.7467 325.363 42.96C325.363 41.04 325.07 38.7733 324.483 36.16C323.95 33.5467 323.63 31.92 323.523 31.28C320.27 34.64 316.616 36.6667 312.563 37.36V35.44C316.403 34.5867 320.003 32.4 323.363 28.88V28.56C323.363 27.28 323.55 26.0267 323.923 24.8C324.296 23.5733 324.67 22.6667 325.043 22.08L325.603 21.2H327.523C327.523 23.5467 327.896 25.7067 328.643 27.68C329.39 29.6 330.216 31.1733 331.123 32.4C332.03 33.5733 332.856 35.1467 333.603 37.12C334.35 39.04 334.723 41.1733 334.723 43.52C334.723 47.3067 333.283 50.4533 330.403 52.96C327.576 55.4667 324.163 56.72 320.163 56.72C316.163 56.72 313.123 55.8133 311.043 54C309.016 52.1867 308.003 50.1067 308.003 47.76C308.003 45.36 308.59 43.6533 309.763 42.64C310.936 41.5733 312.323 41.04 313.923 41.04C315.523 41.04 316.83 41.5733 317.843 42.64C318.91 43.6533 319.443 44.9867 319.443 46.64C319.443 48.24 318.936 49.6 317.923 50.72C316.91 51.84 315.603 52.4 314.003 52.4C313.31 52.4 312.59 52.2933 311.843 52.08C313.016 53.7867 314.883 54.64 317.443 54.64Z" fill="#EE6352"/>
</svg>
